<svg width="693" height="640" viewBox="0 0 693 640" fill="none" xmlns="http://www.w3.org/2000/svg">
<path d="M679 319.5C679 493.746 537.711 635 363.421 635C-178.714 635 328.238 406.877 328.238 232.631C302.118 146.295 54.2391 4 363.421 4C537.711 4 679 145.254 679 319.5Z" fill="#24EDA4"/>
<path d="M693 324.5C693 498.746 551.711 640 377.421 640C-164.714 640 342.238 411.877 342.238 237.631C316.118 151.295 68.2391 9 377.421 9C551.711 9 693 150.254 693 324.5Z" fill="#24EDA4" fill-opacity="0.5"/>
<path d="M658 315.5C658 489.746 516.711 631 342.421 631C-199.714 631 307.238 402.877 307.238 228.631C281.118 142.295 33.2391 0 342.421 0C516.711 0 658 141.254 658 315.5Z" fill="#24EDA4" fill-opacity="0.2"/>
<path d="M540.966 171.701C561.614 201.836 557.044 240.874 557.044 240.874C557.044 240.874 518.998 231.054 498.35 200.918C477.702 170.783 482.271 131.745 482.271 131.745C482.271 131.745 520.317 141.566 540.966 171.701Z" fill="#2F2E41"/>
<path d="M526.109 177.455C528.525 213.909 556.259 241.752 556.259 241.752C556.259 241.752 580.076 210.49 577.66 174.036C575.244 137.582 547.51 109.74 547.51 109.74C547.51 109.74 523.693 141.001 526.109 177.455Z" fill="#00A1F2"/>
<path d="M289.045 71.7515L569.38 212.737C571.711 213.909 573.645 215.743 574.938 218.01C576.232 220.276 576.828 222.874 576.652 225.477L560.365 466.809C560.292 467.891 559.952 468.938 559.375 469.857C558.799 470.776 558.004 471.538 557.062 472.075C556.119 472.612 555.059 472.907 553.975 472.934C552.89 472.961 551.816 472.719 550.848 472.23L264.121 325.853L278.841 77.6345C278.91 76.4686 279.268 75.338 279.882 74.3444C280.495 73.3509 281.346 72.5254 282.358 71.9422C283.37 71.3589 284.51 71.0361 285.678 71.0029C286.845 70.9696 288.002 71.2268 289.045 71.7515Z" fill="#D0CDE1"/>
<path d="M292.272 76.6693L565.721 214.192C567.995 215.335 569.881 217.124 571.142 219.335C572.404 221.546 572.986 224.08 572.814 226.619L556.927 462.023C556.856 463.079 556.524 464.1 555.962 464.997C555.4 465.893 554.624 466.636 553.705 467.16C552.786 467.684 551.751 467.972 550.694 467.998C549.636 468.024 548.589 467.788 547.644 467.311L267.959 324.53L282.318 82.4079C282.385 81.2705 282.734 80.1677 283.333 79.1986C283.932 78.2294 284.762 77.4242 285.749 76.8553C286.736 76.2864 287.848 75.9715 288.987 75.9391C290.125 75.9066 291.254 76.1575 292.272 76.6693Z" fill="#3F3D56"/>
<path d="M304.256 94.9355L552.129 219.595C554.19 220.632 555.9 222.254 557.044 224.258C558.187 226.262 558.715 228.558 558.559 230.861L544.158 444.247C544.093 445.204 543.793 446.13 543.283 446.943C542.773 447.755 542.071 448.429 541.237 448.904C540.404 449.379 539.466 449.639 538.508 449.663C537.549 449.687 536.599 449.473 535.743 449.04L282.217 319.613L295.233 100.137C295.294 99.1063 295.61 98.1067 296.153 97.2282C296.696 96.3497 297.448 95.6198 298.343 95.1041C299.237 94.5883 300.246 94.303 301.278 94.2735C302.31 94.2441 303.333 94.4716 304.256 94.9355Z" fill="white"/>
<path d="M48.487 444.603L329.18 586.007C331.793 587.321 334.677 588.004 337.6 588C340.524 587.996 343.407 587.306 346.015 585.985L553.665 480.544C556.099 478.108 555.759 474.499 554.981 471.789C554.603 470.477 554.088 469.208 553.445 468.004L525.149 453.116L287.24 334.378L273.026 326.83C269.263 324.836 265.073 323.786 260.815 323.769C256.557 323.751 252.358 324.768 248.58 326.731L48.3992 430.746C47.1256 431.405 46.059 432.404 45.3174 433.631C44.5758 434.859 44.1881 436.267 44.1972 437.702C44.2063 439.136 44.6118 440.539 45.3689 441.757C46.126 442.975 47.2052 443.96 48.487 444.603Z" fill="#D0CDE1"/>
<path opacity="0.1" d="M48.4871 444.603L329.18 586.007C331.793 587.321 334.677 588.004 337.6 588C340.524 587.996 343.407 587.306 346.015 585.985L553.665 480.544C556.1 478.108 555.76 474.499 554.981 471.789L347.952 579.43C345.426 580.744 342.625 581.441 339.778 581.466C336.931 581.49 334.119 580.841 331.57 579.571L44.2974 436.407C44.0273 438.042 44.2885 439.72 45.0427 441.195C45.7968 442.671 47.0041 443.865 48.4871 444.603Z" fill="black"/>
<path opacity="0.1" d="M314.91 486.971L224.007 441.02C222.177 440.095 220.151 439.624 218.101 439.647C216.05 439.671 214.036 440.188 212.227 441.154L159.494 469.335C158.884 469.661 158.376 470.148 158.024 470.742C157.673 471.337 157.491 472.017 157.499 472.708C157.507 473.399 157.705 474.074 158.071 474.661C158.436 475.247 158.956 475.722 159.573 476.033L252.258 522.786C253.797 523.562 255.503 523.947 257.226 523.908C258.949 523.868 260.636 523.405 262.138 522.558L315.081 492.722C315.598 492.431 316.024 492.004 316.316 491.488C316.607 490.972 316.751 490.386 316.734 489.794C316.716 489.202 316.537 488.626 316.215 488.128C315.894 487.63 315.442 487.23 314.91 486.971Z" fill="black"/>
<path opacity="0.1" d="M529 479.286L431.18 531.268C430.055 531.866 428.802 532.185 427.527 532.198C426.253 532.211 424.994 531.917 423.857 531.342L147.474 391.531C146.695 391.137 146.041 390.534 145.586 389.79C145.13 389.045 144.891 388.188 144.895 387.315C144.898 386.442 145.145 385.588 145.607 384.847C146.069 384.106 146.728 383.509 147.51 383.122L243.033 335.828C244.473 335.115 246.059 334.747 247.665 334.753C249.271 334.759 250.854 335.138 252.289 335.861L528.957 475.302C529.324 475.487 529.633 475.77 529.851 476.119C530.068 476.468 530.186 476.87 530.19 477.281C530.195 477.692 530.086 478.096 529.876 478.45C529.666 478.804 529.363 479.093 529 479.286Z" fill="black"/>
<path d="M372.945 220.041L372.454 221.023L462.389 266.004L462.879 265.022L372.945 220.041Z" fill="#00A1F2"/>
<path d="M372.937 233.233L372.438 234.209L462.396 280.239L462.896 279.263L372.937 233.233Z" fill="#00A1F2"/>
<path d="M389.404 258.435L388.905 259.412L440.446 285.756L440.945 284.779L389.404 258.435Z" fill="#00A1F2"/>
<path d="M107.82 313.361C107.82 313.361 85.8888 303.802 75.5878 313.9C65.2869 323.998 103.168 320.674 107.82 313.361Z" fill="#3F3D56"/>
<path d="M69.9507 268.026C77.3207 255.569 91.9018 254.989 91.9018 254.989C91.9018 254.989 106.11 253.171 115.225 272.143C123.72 289.827 135.445 306.901 117.113 311.04L113.801 300.73L111.75 311.808C109.14 311.996 106.522 312.04 103.906 311.942C84.2733 311.308 65.5758 312.127 66.1778 305.08C66.9781 295.712 62.8592 280.012 69.9507 268.026Z" fill="#2F2E41"/>
<path d="M59.6379 493.85C59.6379 493.85 68.942 511.134 74.9232 511.134C80.9044 511.134 80.2399 522.435 78.9107 525.095C77.5815 527.754 74.2587 533.737 79.5753 542.379C81.4324 545.398 81.1001 548.822 79.8815 552C76.467 560.905 63.1847 558.207 63.6084 548.679C63.6131 548.574 63.6188 548.468 63.6254 548.362C64.29 537.725 58.9734 521.106 53.6568 517.117C48.3401 513.129 43.6881 502.492 43.6881 502.492L59.6379 493.85Z" fill="#FFB8B8"/>
<path d="M123.437 489.861C123.437 489.861 114.133 507.145 108.152 507.145C102.171 507.145 102.836 518.447 104.165 521.106C105.494 523.765 108.817 529.748 103.5 538.39C101.643 541.409 101.975 544.833 103.194 548.011C106.608 556.916 119.891 554.218 119.467 544.69C119.462 544.585 119.457 544.48 119.45 544.373C118.785 533.737 124.102 517.117 129.419 513.128C134.735 509.14 139.387 498.503 139.387 498.503L123.437 489.861Z" fill="#FFB8B8"/>
<path d="M116.127 404.769L120.115 413.411C120.115 413.411 178.597 432.69 173.281 455.292C167.964 477.895 142.046 513.128 138.058 511.799C134.071 510.469 112.804 506.481 112.14 495.179C111.475 483.878 127.425 463.935 127.425 463.935L105.494 443.991L73.5806 443.326L46.3464 463.935C46.3464 463.935 74.9232 489.196 62.2963 499.168C49.6693 509.14 31.0611 515.788 28.4028 511.799C25.7445 507.81 -4.16158 448.645 0.490464 443.326C5.14251 438.008 52.3276 418.065 52.3276 418.065L64.9546 400.115L114.133 397.456L116.127 404.769Z" fill="#2F2E41"/>
<path d="M104.165 295.08C104.165 295.08 100.842 317.018 107.488 319.677C114.133 322.336 94.196 333.637 94.196 333.637H82.8982L75.5878 318.347C75.5878 318.347 82.2336 306.381 78.2461 295.08C74.2587 283.778 104.165 295.08 104.165 295.08Z" fill="#FFB8B8"/>
<path opacity="0.1" d="M104.165 295.08C104.165 295.08 100.842 317.018 107.488 319.677C114.133 322.336 94.196 333.637 94.196 333.637H82.8982L75.5878 318.347C75.5878 318.347 82.2336 306.381 78.2461 295.08C74.2587 283.778 104.165 295.08 104.165 295.08Z" fill="black"/>
<path d="M108.817 313.694C108.817 313.694 101.506 321.671 100.177 323.001C98.8481 324.33 92.8669 331.643 80.2399 321.006C67.6129 310.37 66.2838 323.001 66.2838 323.001V402.775C66.2838 402.775 76.917 398.121 85.5565 402.775C94.196 407.428 112.14 401.445 112.14 401.445L115.463 319.012L108.817 313.694Z" fill="#D0CDE1"/>
<path d="M103.935 313.694C103.935 313.694 110.146 311.034 115.463 313.694C120.779 316.353 139.387 329.648 138.058 335.631C136.729 341.615 119.45 383.496 131.412 403.439C143.375 423.383 145.369 428.701 145.369 428.701L116.127 413.411C116.127 413.411 93.5315 399.451 95.5252 390.808C97.5189 382.166 103.935 313.694 103.935 313.694Z" fill="#3F3D56"/>
<path d="M77.5737 313.694C77.5737 313.694 63.6254 315.023 62.9608 316.353C62.2962 317.682 42.0266 323.333 43.3558 329.316C44.6849 335.299 62.9608 388.814 54.9859 398.786C47.011 408.758 33.7194 422.718 38.3714 424.048C43.0235 425.377 50.9984 422.053 58.9734 424.048C66.9483 426.042 85.5565 409.422 83.5628 391.473C81.569 373.524 83.5471 318.347 77.5737 313.694Z" fill="#3F3D56"/>
<path d="M110.81 440.667V447.315C110.81 447.315 114.133 462.605 103.5 461.94C92.8669 461.275 99.5126 443.326 99.5126 443.326L100.177 437.343L110.81 440.667Z" fill="#FFB8B8"/>
<path d="M80.9045 441.332C80.9045 441.332 88.2148 456.622 80.9045 457.951C73.5941 459.281 68.2775 449.309 68.2775 446.65C68.2775 443.991 80.9045 441.332 80.9045 441.332Z" fill="#FFB8B8"/>
<path d="M71.2681 288.764C72.0021 288.764 72.5972 287.574 72.5972 286.105C72.5972 284.637 72.0021 283.446 71.2681 283.446C70.534 283.446 69.9389 284.637 69.9389 286.105C69.9389 287.574 70.534 288.764 71.2681 288.764Z" fill="#FFB8B8"/>
<path d="M110.478 288.764C111.212 288.764 111.807 287.574 111.807 286.105C111.807 284.637 111.212 283.446 110.478 283.446C109.744 283.446 109.149 284.637 109.149 286.105C109.149 287.574 109.744 288.764 110.478 288.764Z" fill="#FFB8B8"/>
<path d="M59.638 322.336C59.638 322.336 43.0235 322.336 43.6881 328.984C44.3527 335.631 66.2838 449.974 66.2838 449.974C66.2838 449.974 75.5878 441.332 83.5628 443.326L59.638 322.336Z" fill="#3F3D56"/>
<path d="M124.102 324.33C124.102 324.33 140.717 327.654 140.717 337.626C140.717 347.598 116.792 443.326 113.469 443.326C110.146 443.326 97.5189 441.332 97.5189 438.008C97.5189 434.684 124.102 324.33 124.102 324.33Z" fill="#3F3D56"/>
<path opacity="0.2" d="M120.447 343.941L105.494 402.436C105.494 402.436 112.472 351.254 120.447 343.941Z" fill="black"/>
<path opacity="0.2" d="M62.285 335.722L77.4081 412.201C77.4081 412.201 72.5746 340.134 62.285 335.722Z" fill="black"/>
<path d="M90.8731 305.716C101.517 305.716 110.146 297.085 110.146 286.438C110.146 275.79 101.517 267.159 90.8731 267.159C80.2291 267.159 71.6003 275.79 71.6003 286.438C71.6003 297.085 80.2291 305.716 90.8731 305.716Z" fill="#FFB8B8"/>
<path d="M73.2091 266.825L87.6148 259.278L107.508 262.365L111.623 280.549L101.378 280.155L98.516 273.474V280.045L93.7883 279.863L91.0442 269.227L89.3295 280.549L72.5229 280.206L73.2091 266.825Z" fill="#2F2E41"/>
<path d="M289.226 154.901L281.282 173.8L348.332 209.006L370.922 142.881" fill="#F2F2F2"/>
<path d="M346.787 197.411L376.407 127.693L308.329 94.1821L279.737 162.205L346.787 197.411Z" fill="#00A1F2"/>
<path d="M306.719 120.843L306.22 121.82L357.761 148.163L358.26 147.186L306.719 120.843Z" fill="white"/>
<path d="M302.856 130.119L302.357 131.096L353.897 157.439L354.396 156.462L302.856 130.119Z" fill="white"/>
</svg>
