<svg width="22.43" height="24.92" viewBox="0 0 22 24" fill="none" xmlns="http://www.w3.org/2000/svg">
<g clip-path="url(#clip0)">
<path d="M4.8 24H16.8C17.0888 24 17.3679 23.896 17.5861 23.7068C17.8043 23.5177 17.947 23.2562 17.988 22.9704L20.2404 7.2H21.6V4.8H19.9416L17.8728 0.6636C17.7734 0.464128 17.6204 0.296338 17.4309 0.179104C17.2413 0.0618702 17.0229 -0.000156721 16.8 2.97374e-07H4.8C4.3452 2.97374e-07 3.93 0.2568 3.726 0.6636L1.6584 4.8H0V7.2H1.3596L3.612 22.9704C3.65301 23.2562 3.79571 23.5177 4.01392 23.7068C4.23214 23.896 4.51124 24 4.8 24V24ZM17.3016 10.8H4.2984L3.7836 7.2H17.8152L17.3016 10.8ZM5.8404 21.6L5.3256 18H16.2732L15.7584 21.6H5.8404V21.6ZM5.5416 2.4H16.0584L17.2584 4.8H4.3416L5.5416 2.4Z" fill="#63738A"/>
</g>
<defs>
<clipPath id="clip0">
<rect width="21.6" height="24" fill="white"/>
</clipPath>
</defs>
</svg>
