<svg width="23" height="26" viewBox="0 0 23 26" fill="none" xmlns="http://www.w3.org/2000/svg">
<path d="M2.56919 25.4615H20.0152C21.3897 25.4615 22.5074 24.3437 22.5074 22.9692V11.754C22.5076 11.5903 22.4754 11.4282 22.4128 11.277C22.3501 11.1258 22.2582 10.9885 22.1423 10.873L12.1732 0.903822C12.0576 0.787999 11.9202 0.696111 11.7691 0.633417C11.6179 0.570722 11.4558 0.538452 11.2922 0.538452C11.1285 0.538452 10.9665 0.570722 10.8153 0.633417C10.6641 0.696111 10.5268 0.787999 10.4112 0.903822L0.442024 10.873C0.326136 10.9885 0.234222 11.1258 0.171563 11.277C0.108905 11.4282 0.0767359 11.5903 0.076905 11.754V22.9692C0.076905 24.3437 1.19469 25.4615 2.56919 25.4615V25.4615ZM8.79989 22.9692V16.7385H13.7845V22.9692H8.79989ZM2.56919 12.2699L11.2922 3.54689L20.0152 12.2699L20.0164 22.9692H16.2767V16.7385C16.2767 15.364 15.159 14.2463 13.7845 14.2463H8.79989C7.4254 14.2463 6.30761 15.364 6.30761 16.7385V22.9692H2.56919V12.2699Z" fill="#00A1F2"/>
</svg>
