<svg width="487" height="86" viewBox="0 0 487 86" fill="none" xmlns="http://www.w3.org/2000/svg">
<path d="M36.4062 39.2969C32.3281 36.1562 12.3594 22.4688 7.39062 16.5625L1.85938 21.3438C2.75 22.75 3.78125 23.6406 5.04688 24.8125C10.3906 29.7812 21.8281 38.125 27.7344 42.3438C21.125 47.6406 8.89062 57.4844 0.6875 61.8906L3.875 68.4062C12.2188 65.3594 31.9062 48.0156 36.4062 44.7812V39.2969ZM53.4688 42.2969C53.4688 31.0938 58.25 26.4531 68.6094 26.4531C76.1094 26.4531 77.4688 30.9062 77.9844 32.8281L85.2031 30.0156C84.1719 27.5781 82.7188 24.7656 79.8594 22.5625C77.0469 20.4062 73.5781 19.2812 69.125 19.2812C54.3594 19.2812 46.0156 25.0938 46.0156 42.2969C46.0156 51.625 47.8906 58.8438 53.9844 63.5781C58.4844 66.9531 64.25 67.3281 69.125 67.3281C82.2031 67.3281 86.5625 59.0781 88.1094 57.1094L82.2031 52.8438C79.7656 56.9219 76.25 59.9688 68.9375 59.9688H68.3281C63.1719 59.9688 53.4688 59.6406 53.4688 42.2969ZM123.031 56.9219C120.688 58.8906 118.625 59.6406 115.062 59.6875C107.234 59.6875 103.156 54.1562 103.156 45.0156C103.156 33.5781 106.062 25.8438 115.812 25.8438C124.109 25.8438 127.109 32.6875 127.203 41.3125V42.1562C127.203 49.0938 126.078 54.0625 123.031 56.9219ZM114.969 66.9531H115.062C130.156 66.9531 134.656 54.9062 134.656 41.5469C134.656 37.0469 133.812 31.75 131.891 28.0469C128.609 21.8594 123.453 18.625 114.219 18.625C100.531 18.625 95.75 31.5625 95.75 45.25C95.75 58.375 102.219 66.9062 114.969 66.9531ZM152.891 44.5938C152.891 31.3281 155.891 26.3125 163.531 26.3125C167.797 26.3125 172.906 29.7344 175.344 32.125V52.6094C172.016 57.9531 169.766 60.1094 163.344 60.1094C155.375 60.1094 152.891 54.1562 152.891 44.5938ZM182.703 54.4844L182.75 13C182.75 8.73438 182.516 4.28125 182.094 0.859375L174.594 1.23438C174.922 4.42188 175.297 8.40625 175.297 12.8125V22.5156C173.047 21.0625 168.875 19.0469 164.188 19.0469C149.047 19.0469 145.484 29.7344 145.484 45.4844C145.484 58.0469 150.453 67.3281 163.344 67.3281C168.594 67.3281 172.391 65.6875 175.344 63.0625C175.391 65.0312 175.625 66.0625 175.859 67.5625L183.547 66.6719C183.078 63.625 182.703 59.5938 182.703 55.7031V54.4844ZM202.812 39.8125C202.859 32.5938 207.688 26.2656 215.656 26.2656C222.031 26.2656 226.812 31.0469 227.562 38.5938C220.906 39.3438 208.859 39.7656 202.812 39.8125ZM215.609 19.1406C202.344 19.1406 195.406 29.4062 195.406 42.8125C195.406 57.4844 202.25 67.4688 216.219 67.4688C227.375 67.4688 232.719 61.2812 234.641 59.1719L228.875 54.0625C227.047 56.5938 223.109 60.2969 216.406 60.2969C206.844 60.2969 202.812 54.1562 202.812 46.9844C211.156 46.8906 221.844 46.3281 234.969 45.4375C235.016 45.0625 235.016 44.3594 235.016 43.4219C235.016 36.9531 233.281 19.1406 215.609 19.1406ZM260.891 0.296875C256.016 0.296875 250.578 0.390625 245.328 1.60938L246.641 8.3125C249.5 7.65625 252.875 7.51562 255.547 7.51562C256.953 7.51562 258.219 7.5625 259.016 7.5625L259.156 57.25C259.156 60.0156 259.531 63.7656 263.516 65.9688C265.578 67.0938 269.141 67.75 273.125 67.75C278.938 67.75 285.641 66.3438 289.672 63.0156L286.484 57.6719C283.25 60.1094 277.438 61.0938 273.078 61.0938C268.766 61.0938 266.703 60.9062 266.469 57.0625C266.469 57.0625 266.328 13.0938 266.328 0.296875H260.891ZM321.781 56.9219C319.438 58.8906 317.375 59.6406 313.812 59.6875C305.984 59.6875 301.906 54.1562 301.906 45.0156C301.906 33.5781 304.812 25.8438 314.562 25.8438C322.859 25.8438 325.859 32.6875 325.953 41.3125V42.1562C325.953 49.0938 324.828 54.0625 321.781 56.9219ZM313.719 66.9531H313.812C328.906 66.9531 333.406 54.9062 333.406 41.5469C333.406 37.0469 332.562 31.75 330.641 28.0469C327.359 21.8594 322.203 18.625 312.969 18.625C299.281 18.625 294.5 31.5625 294.5 45.25C294.5 58.375 300.969 66.9062 313.719 66.9531ZM351.922 70.5625C351.922 67.6094 353.234 64.7969 355.859 63.7656C362.703 63.6719 365.375 63.6719 365.797 63.6719C371.469 63.6719 378.453 64.1875 378.453 68.1719C378.453 75.9531 371.938 77.875 366.547 77.875H361.625C355.438 77.875 351.922 76.4688 351.922 70.5625ZM363.125 40.8906C357.031 40.8906 352.672 39.2031 352.672 33.7656C352.672 29.4531 357.5 26.0312 363.875 26.0312C369.828 26.0312 373.812 27.8594 373.812 33.9062C373.812 38.4531 369.172 40.8906 363.125 40.8906ZM345.266 34.2344C345.266 37.6094 346.531 40.5156 348.125 42.2969C346.156 44.5469 344.656 47.3594 344.656 51.625C344.656 55.2812 345.969 58.6094 348.641 60.5781C346.062 62.8281 344.562 66.1562 344.562 70.8438C344.562 80.6406 351.547 85.1875 361.438 85.1875H366.266C377.703 85.1875 385.859 80.2656 385.859 68.125C385.859 59.2188 377.75 56.4531 368.938 56.4531C367.672 56.4531 361.672 56.5469 360.453 56.5469C354.547 56.5469 352.016 54.5781 352.016 51.0156C352.016 49.0938 353.141 47.4531 354.031 46.4219C357.078 47.5938 360.031 47.9219 363.359 47.9219C373.906 47.9219 381.125 42.5781 381.125 33.7188C381.125 31.4688 380.938 29.5 379.719 27.2969C380.516 26.5 382.344 26.2656 383.984 26.2656C384.453 26.2656 385.484 26.4062 386.047 26.5V18.8125C380.891 18.8125 378.406 19.2812 375.781 21.7188C372.734 19.8438 369.266 18.9062 363.875 18.9062C352.344 18.9062 345.266 24.3906 345.266 34.2344ZM403.062 40.3281C407.984 42.9062 417.594 44.7344 421.203 47.3125C423.781 49.2344 425.234 50.6406 425.234 53.5938C425.234 58.75 419.656 61.2344 413.891 61.2344C406.625 61.2344 403.391 57.8594 403.391 51.5781L396.031 51.5312C396.031 61.6094 402.031 67.9375 414.031 67.9375C416.703 67.9375 419.516 67.6094 422.141 67C427.156 65.6875 432.5 61.4219 432.5 53.8281C432.5 40.5156 420.5 39.5781 407.797 34.2812C405.922 33.4375 404.984 32.3594 404.984 30.1094C404.984 27.0625 409.156 25.7031 414.125 25.7031C418.156 25.7031 423.5 27.6719 425.984 30.5781L431.281 25.375C427.438 20.6406 419.188 18.7656 413.469 18.7656C405.266 18.7656 397.672 22.1875 397.625 30.2969C397.625 35.5 400.016 38.6875 403.062 40.3281ZM486.688 82.6562V75.3438H442.156V82.6562H486.688Z" fill="#3F3D56"/>
</svg>
