<svg width="325" height="58" viewBox="0 0 325 58" fill="none" xmlns="http://www.w3.org/2000/svg">
<path d="M23.9375 26.5312C21.2188 24.4375 7.90625 15.3125 4.59375 11.375L0.90625 14.5625C1.5 15.5 2.1875 16.0938 3.03125 16.875C6.59375 20.1875 14.2188 25.75 18.1562 28.5625C13.75 32.0938 5.59375 38.6562 0.125 41.5938L2.25 45.9375C7.8125 43.9062 20.9375 32.3438 23.9375 30.1875V26.5312ZM35.3125 28.5312C35.3125 21.0625 38.5 17.9688 45.4062 17.9688C50.4062 17.9688 51.3125 20.9375 51.6562 22.2188L56.4688 20.3438C55.7812 18.7188 54.8125 16.8438 52.9062 15.375C51.0312 13.9375 48.7188 13.1875 45.75 13.1875C35.9062 13.1875 30.3438 17.0625 30.3438 28.5312C30.3438 34.75 31.5938 39.5625 35.6562 42.7188C38.6562 44.9688 42.5 45.2188 45.75 45.2188C54.4688 45.2188 57.375 39.7188 58.4062 38.4062L54.4688 35.5625C52.8438 38.2812 50.5 40.3125 45.625 40.3125H45.2188C41.7812 40.3125 35.3125 40.0938 35.3125 28.5312ZM81.6875 38.2812C80.125 39.5938 78.75 40.0938 76.375 40.125C71.1562 40.125 68.4375 36.4375 68.4375 30.3438C68.4375 22.7188 70.375 17.5625 76.875 17.5625C82.4062 17.5625 84.4062 22.125 84.4688 27.875V28.4375C84.4688 33.0625 83.7188 36.375 81.6875 38.2812ZM76.3125 44.9688H76.375C86.4375 44.9688 89.4375 36.9375 89.4375 28.0312C89.4375 25.0312 88.875 21.5 87.5938 19.0312C85.4062 14.9062 81.9688 12.75 75.8125 12.75C66.6875 12.75 63.5 21.375 63.5 30.5C63.5 39.25 67.8125 44.9375 76.3125 44.9688ZM101.594 30.0625C101.594 21.2188 103.594 17.875 108.688 17.875C111.531 17.875 114.938 20.1562 116.562 21.75V35.4062C114.344 38.9688 112.844 40.4062 108.562 40.4062C103.25 40.4062 101.594 36.4375 101.594 30.0625ZM121.469 36.6562L121.5 9C121.5 6.15625 121.344 3.1875 121.062 0.90625L116.062 1.15625C116.281 3.28125 116.531 5.9375 116.531 8.875V15.3438C115.031 14.375 112.25 13.0312 109.125 13.0312C99.0312 13.0312 96.6562 20.1562 96.6562 30.6562C96.6562 39.0312 99.9688 45.2188 108.562 45.2188C112.062 45.2188 114.594 44.125 116.562 42.375C116.594 43.6875 116.75 44.375 116.906 45.375L122.031 44.7812C121.719 42.75 121.469 40.0625 121.469 37.4688V36.6562ZM134.875 26.875C134.906 22.0625 138.125 17.8438 143.438 17.8438C147.688 17.8438 150.875 21.0312 151.375 26.0625C146.938 26.5625 138.906 26.8438 134.875 26.875ZM143.406 13.0938C134.562 13.0938 129.938 19.9375 129.938 28.875C129.938 38.6562 134.5 45.3125 143.812 45.3125C151.25 45.3125 154.812 41.1875 156.094 39.7812L152.25 36.375C151.031 38.0625 148.406 40.5312 143.938 40.5312C137.562 40.5312 134.875 36.4375 134.875 31.6562C140.438 31.5938 147.562 31.2188 156.312 30.625C156.344 30.375 156.344 29.9062 156.344 29.2812C156.344 24.9688 155.188 13.0938 143.406 13.0938ZM173.594 0.53125C170.344 0.53125 166.719 0.59375 163.219 1.40625L164.094 5.875C166 5.4375 168.25 5.34375 170.031 5.34375C170.969 5.34375 171.812 5.375 172.344 5.375L172.438 38.5C172.438 40.3438 172.688 42.8438 175.344 44.3125C176.719 45.0625 179.094 45.5 181.75 45.5C185.625 45.5 190.094 44.5625 192.781 42.3438L190.656 38.7812C188.5 40.4062 184.625 41.0625 181.719 41.0625C178.844 41.0625 177.469 40.9375 177.312 38.375C177.312 38.375 177.219 9.0625 177.219 0.53125H173.594ZM214.188 38.2812C212.625 39.5938 211.25 40.0938 208.875 40.125C203.656 40.125 200.938 36.4375 200.938 30.3438C200.938 22.7188 202.875 17.5625 209.375 17.5625C214.906 17.5625 216.906 22.125 216.969 27.875V28.4375C216.969 33.0625 216.219 36.375 214.188 38.2812ZM208.812 44.9688H208.875C218.938 44.9688 221.938 36.9375 221.938 28.0312C221.938 25.0312 221.375 21.5 220.094 19.0312C217.906 14.9062 214.469 12.75 208.312 12.75C199.188 12.75 196 21.375 196 30.5C196 39.25 200.312 44.9375 208.812 44.9688ZM234.281 47.375C234.281 45.4062 235.156 43.5312 236.906 42.8438C241.469 42.7812 243.25 42.7812 243.531 42.7812C247.312 42.7812 251.969 43.125 251.969 45.7812C251.969 50.9688 247.625 52.25 244.031 52.25H240.75C236.625 52.25 234.281 51.3125 234.281 47.375ZM241.75 27.5938C237.688 27.5938 234.781 26.4688 234.781 22.8438C234.781 19.9688 238 17.6875 242.25 17.6875C246.219 17.6875 248.875 18.9062 248.875 22.9375C248.875 25.9688 245.781 27.5938 241.75 27.5938ZM229.844 23.1562C229.844 25.4062 230.688 27.3438 231.75 28.5312C230.438 30.0312 229.438 31.9062 229.438 34.75C229.438 37.1875 230.312 39.4062 232.094 40.7188C230.375 42.2188 229.375 44.4375 229.375 47.5625C229.375 54.0938 234.031 57.125 240.625 57.125H243.844C251.469 57.125 256.906 53.8438 256.906 45.75C256.906 39.8125 251.5 37.9688 245.625 37.9688C244.781 37.9688 240.781 38.0312 239.969 38.0312C236.031 38.0312 234.344 36.7188 234.344 34.3438C234.344 33.0625 235.094 31.9688 235.688 31.2812C237.719 32.0625 239.688 32.2812 241.906 32.2812C248.938 32.2812 253.75 28.7188 253.75 22.8125C253.75 21.3125 253.625 20 252.812 18.5312C253.344 18 254.562 17.8438 255.656 17.8438C255.969 17.8438 256.656 17.9375 257.031 18V12.875C253.594 12.875 251.938 13.1875 250.188 14.8125C248.156 13.5625 245.844 12.9375 242.25 12.9375C234.562 12.9375 229.844 16.5938 229.844 23.1562ZM268.375 27.2188C271.656 28.9375 278.062 30.1562 280.469 31.875C282.188 33.1562 283.156 34.0938 283.156 36.0625C283.156 39.5 279.438 41.1562 275.594 41.1562C270.75 41.1562 268.594 38.9062 268.594 34.7188L263.688 34.6875C263.688 41.4062 267.688 45.625 275.688 45.625C277.469 45.625 279.344 45.4062 281.094 45C284.438 44.125 288 41.2812 288 36.2188C288 27.3438 280 26.7188 271.531 23.1875C270.281 22.625 269.656 21.9062 269.656 20.4062C269.656 18.375 272.438 17.4688 275.75 17.4688C278.438 17.4688 282 18.7812 283.656 20.7188L287.188 17.25C284.625 14.0938 279.125 12.8438 275.312 12.8438C269.844 12.8438 264.781 15.125 264.75 20.5312C264.75 24 266.344 26.125 268.375 27.2188ZM324.125 55.4375V50.5625H294.438V55.4375H324.125Z" fill="#3F3D56"/>
</svg>
