<svg width="22" height="25" viewBox="0 0 22 25" fill="none" xmlns="http://www.w3.org/2000/svg">
<g clip-path="url(#clip0)">
<path d="M15.8378 14.0759L10.9025 19.0112L5.96717 14.0759C2.62828 14.3728 0 17.1422 0 20.559V22.5838C0 23.8736 1.04645 24.92 2.33625 24.92H19.4688C20.7586 24.92 21.805 23.8736 21.805 22.5838V20.559C21.805 17.1422 19.1767 14.3728 15.8378 14.0759ZM1.5575 9.345C2.88624 9.345 4.0787 8.78527 4.92559 7.89945C5.66054 10.5229 8.04059 12.46 10.9025 12.46C14.3436 12.46 17.1325 9.6711 17.1325 6.23C17.1325 2.7889 14.3436 0 10.9025 0C8.44944 0 6.34681 1.43095 5.32957 3.49464C4.48268 2.32652 3.115 1.5575 1.5575 1.5575C1.5575 3.18314 2.38979 4.61409 3.65526 5.45125C2.38979 6.28841 1.5575 7.71936 1.5575 9.345V9.345ZM8.56625 4.6725H13.2388C14.1002 4.6725 14.7963 5.36851 14.7963 6.23H7.00875C7.00875 5.36851 7.70476 4.6725 8.56625 4.6725Z" fill="#00A1F2"/>
</g>
<defs>
<clipPath id="clip0">
<rect width="21.805" height="24.92" fill="white"/>
</clipPath>
</defs>
</svg>
